<?xml version="1.0" standalone="no"?>
<!DOCTYPE svg PUBLIC "-//W3C//DTD SVG 20010904//EN"
 "http://www.w3.org/TR/2001/REC-SVG-20010904/DTD/svg10.dtd">
<svg version="1.0" xmlns="http://www.w3.org/2000/svg"
 width="375.000000pt" height="375.000000pt" viewBox="0 0 375.000000 375.000000"
 preserveAspectRatio="xMidYMid meet">
<metadata>
Created by potrace 1.11, written by Peter Selinger 2001-2013
</metadata>
<g transform="translate(0.000000,375.000000) scale(0.100000,-0.100000)"
fill="#000000" stroke="none">
<path d="M1685 3653 c-60 -5 -227 -33 -239 -40 -5 -4 -23 -8 -40 -10 -16 -2
-35 -8 -43 -14 -7 -6 -13 -9 -13 -5 0 4 -13 0 -30 -9 -16 -9 -30 -13 -30 -9 0
4 -7 1 -15 -6 -8 -7 -15 -9 -15 -5 0 4 -6 2 -13 -4 -8 -6 -17 -8 -20 -4 -4 3
-7 2 -7 -3 0 -6 -24 -18 -52 -29 -58 -20 -174 -79 -199 -101 -8 -8 -19 -14
-23 -14 -5 0 -30 -16 -56 -35 -26 -19 -50 -35 -53 -35 -4 0 -25 -18 -49 -40
-24 -22 -46 -40 -50 -40 -9 0 -207 -200 -199 -200 3 0 -1 -6 -9 -13 -25 -20
-135 -177 -175 -249 -20 -38 -41 -71 -46 -74 -5 -3 -7 -10 -4 -15 4 -5 1 -9
-5 -9 -6 0 -8 -4 -5 -10 3 -5 1 -10 -6 -10 -7 0 -9 -3 -6 -7 4 -3 2 -12 -4
-20 -6 -7 -8 -13 -3 -13 5 0 4 -4 -2 -8 -26 -17 -103 -279 -130 -442 -13 -84
-5 -488 12 -583 9 -48 20 -87 24 -87 5 0 7 -12 4 -26 -3 -15 -1 -23 5 -20 6 4
8 -4 5 -19 -2 -14 0 -25 5 -25 4 0 9 -12 9 -26 0 -15 6 -30 13 -35 8 -5 10 -9
4 -9 -5 0 -4 -5 2 -11 6 -6 9 -18 6 -27 -5 -11 -3 -13 7 -7 10 6 12 4 7 -8 -4
-10 -2 -17 4 -17 6 0 8 -7 5 -16 -3 -8 -2 -12 4 -9 6 3 10 -1 10 -10 0 -8 11
-38 25 -66 14 -27 23 -55 19 -62 -4 -7 -4 -9 1 -5 8 8 37 -36 56 -84 6 -16 15
-28 20 -28 5 0 9 -4 9 -9 0 -6 11 -22 25 -37 14 -15 25 -33 25 -39 0 -7 7 -15
15 -19 8 -3 15 -12 15 -20 0 -7 7 -16 15 -20 8 -3 15 -11 15 -17 0 -13 1 -14
130 -144 102 -103 132 -130 154 -138 9 -4 16 -11 16 -17 0 -5 7 -10 15 -10 9
0 18 -7 21 -15 4 -8 12 -15 20 -15 8 0 14 -4 14 -10 0 -5 5 -10 11 -10 6 0 32
-15 58 -34 63 -46 237 -128 346 -162 50 -16 91 -32 93 -35 2 -4 12 -5 22 -2
11 3 20 0 20 -6 0 -8 113 -11 404 -11 382 0 468 5 531 30 11 5 52 19 90 31 39
13 75 27 82 32 6 4 33 16 60 26 54 20 212 116 311 189 67 50 292 268 292 283
0 5 9 14 20 21 11 7 20 19 20 26 0 7 7 15 15 18 8 4 15 12 15 20 0 8 3 14 8
14 4 0 13 13 20 28 6 16 21 38 31 49 11 12 17 23 14 26 -3 3 4 16 16 28 11 12
18 26 15 31 -3 4 -1 8 4 8 10 0 92 164 92 185 0 8 4 15 10 15 5 0 6 7 3 17 -4
9 -2 14 3 11 5 -4 10 6 11 20 0 15 6 28 12 30 5 2 8 9 5 17 -3 7 -1 16 5 19 6
4 8 13 4 21 -3 8 0 15 7 15 6 0 8 5 5 10 -4 6 -2 17 4 24 6 7 9 21 5 30 -3 9
-2 16 4 16 6 0 9 11 7 25 -1 14 1 28 6 30 9 6 8 -22 12 330 3 246 -1 337 -16
400 -2 6 -9 38 -17 73 -8 34 -17 62 -20 62 -3 0 -6 12 -7 27 0 15 -6 29 -12
31 -6 2 -9 8 -6 13 3 5 0 19 -7 31 -6 13 -13 28 -14 33 -1 6 -10 28 -20 50
-10 22 -17 43 -16 48 1 4 -2 7 -6 7 -5 0 -17 20 -28 45 -10 25 -22 45 -26 45
-4 0 -8 6 -8 13 0 16 -87 151 -101 155 -5 2 -9 9 -9 16 0 7 -9 21 -20 31 -11
10 -18 20 -16 23 12 11 -258 264 -354 331 -99 70 -330 198 -330 184 0 -4 -5
-2 -12 5 -7 7 -20 12 -29 12 -9 0 -22 7 -29 15 -7 8 -16 12 -21 9 -5 -2 -22 2
-39 11 -16 8 -31 15 -32 15 -2 -1 -10 1 -18 4 -51 17 -211 47 -291 56 -88 9
-294 11 -384 3z"/>
</g>
</svg>
